<?xml version="1.0" encoding="UTF-8" standalone="no"?>
<!-- Generator: Adobe Illustrator 24.1.0, SVG Export Plug-In . SVG Version: 6.00 Build 0)  -->

<svg
    xmlns:dc="http://purl.org/dc/elements/1.1/"
    xmlns:cc="http://creativecommons.org/ns#"
    xmlns:rdf="http://www.w3.org/1999/02/22-rdf-syntax-ns#"
    xmlns="http://www.w3.org/2000/svg"
    xmlns:sodipodi="http://sodipodi.sourceforge.net/DTD/sodipodi-0.dtd"
    xmlns:inkscape="http://www.inkscape.org/namespaces/inkscape"
    version="1.1"
    id="Layer_1"
    x="0px"
    y="0px"
    viewBox="0 0 97.000005 75.000003"
    xml:space="preserve"
    sodipodi:docname="logo-white.svg"
    width="97"
    height="75"
    inkscape:version="0.92.3 (2405546, 2018-03-11)"><metadata
   id="metadata101"><rdf:RDF><cc:Work
       rdf:about=""><dc:format>image/svg+xml</dc:format><dc:type
         rdf:resource="http://purl.org/dc/dcmitype/StillImage" /><dc:title></dc:title></cc:Work></rdf:RDF></metadata><defs
   id="defs99" /><sodipodi:namedview
   pagecolor="#ffffff"
   bordercolor="#666666"
   borderopacity="1"
   objecttolerance="10"
   gridtolerance="10"
   guidetolerance="10"
   inkscape:pageopacity="0"
   inkscape:pageshadow="2"
   inkscape:window-width="2560"
   inkscape:window-height="1347"
   id="namedview97"
   showgrid="false"
   inkscape:zoom="5.014663"
   inkscape:cx="116.09157"
   inkscape:cy="67.168891"
   inkscape:window-x="0"
   inkscape:window-y="0"
   inkscape:window-maximized="1"
   inkscape:current-layer="Layer_1" />
<style
   type="text/css"
   id="style2">
	.st0{enable-background:new    ;}
	.st1{fill:#FFFFFF;}
	.st2{fill:#1BB2B4;}
	.st3{fill:#2162A8;}
	.st4{fill:#E75425;}
	.st5{fill:#E77D38;}
	.st6{fill:#682680;}
	.st7{fill:#30A9D0;}
	.st8{fill:#09903B;}
	.st9{fill:#20325E;}
	.st10{fill:#50B075;}
</style>

































<g
   id="g1114"
   transform="translate(0.08577,0.268799)"><path
     id="path1019"
     d="M 83.318,41.959 C 78.884,27.566 70.007,10.12 64.889,0.255 c 4.769,0.336 8.536,0.867 12.619,1.962 0.045,9.753 5.064,26.462 5.81,39.742 z"
     inkscape:connector-curvature="0"
     style="fill:#02bbb9" /><g
     id="g1025"
     style="fill:#1268b3"><path
       id="path1023"
       d="m 71.234,41.936 c 1.744,0 3.43,0.004 5.043,0.006 l -2.766,-4.445 c -0.738,-1.164 -1.599,-2.591 -2.184,-3.758 a 11.156,11.156 0 0 1 -0.213,-0.141 c 0.045,1.167 0.117,2.51 0.117,3.68 v 4.659 h 0.003 z M 65.193,41.93 V 29.708 C 53.529,22.104 40.972,14.162 31.145,7.087 c -3.956,3.597 -6.228,9.716 -7.504,16.77 h 6.219 v 18.092 l 6.699,-0.008 V 23.903 h 9.938 c 10.026,0 13.704,6.564 13.704,13.615 0,1.479 -0.188,2.976 -0.58,4.412 z"
       inkscape:connector-curvature="0" /></g><path
     id="path1027"
     d="m 76.277,41.941 c -1.613,-0.002 -3.299,-0.006 -5.043,-0.006 v 9.219 H 65.193 V 41.93 H 59.62 c -1.354,4.979 -5.269,9.202 -13.254,9.202 h -9.808 v -9.19 l -6.699,0.008 v 9.184 h -7.005 c 1.553,10.307 5.798,17.315 15.512,20.531 12.646,-9.016 28.416,-15.887 40.421,-25.682 z"
     inkscape:connector-curvature="0"
     style="fill:#f15d2c" /><path
     id="path1029"
     d="m 78.787,45.982 c -12.005,9.795 -27.775,16.666 -40.421,25.682 3.381,1.232 7.042,2.006 11.194,2.531 9.33,-8.398 21.112,-16.35 29.926,-27.09 z"
     inkscape:connector-curvature="0"
     style="fill:#e78040" /><path
     id="path1031"
     d="m 82.578,51.154 h -0.573 l -2.519,-4.049 c -8.812,10.74 -20.596,18.69 -29.926,27.09 11.121,1.313 21.821,1.187 30.61,-1.858 -0.83,-6.969 1.237,-13.468 2.408,-21.183 z"
     inkscape:connector-curvature="0"
     style="fill:#682c91" /><path
     id="path1033"
     d="m 86.286,51.154 h -3.708 c -1.171,7.715 -3.238,14.214 -2.406,21.183 4.76,-1.698 7.76,-3.812 10.465,-7.606 -2.633,-5.181 -3.338,-9.238 -4.351,-13.577 z"
     inkscape:connector-curvature="0"
     style="fill:#26abce" /><path
     id="path1035"
     d="m 89.316,50.068 v 1.086 h -3.03 c 1.013,4.339 1.718,8.396 4.351,13.576 1.445,-2.035 2.676,-4.647 3.551,-7.358 -2.267,-2.999 -3.583,-5.205 -4.872,-7.304 z"
     inkscape:connector-curvature="0"
     style="fill:#ffffff" /><path
     id="path1037"
     d="m 96.906,31.664 c -3.258,1.547 -5.069,4.315 -7.59,6.697 v 11.707 c 1.289,2.099 2.604,4.305 4.871,7.304 2.482,-7.772 3.096,-16.256 2.719,-25.708 z"
     inkscape:connector-curvature="0"
     style="fill:#18984a" /><path
     id="path1039"
     d="m 96.648,27.822 c -3.207,2.323 -4.981,5.774 -7.332,8.879 v 1.66 c 2.521,-2.382 4.332,-5.15 7.59,-6.697 a 68.918,68.918 0 0 0 -0.258,-3.842 z"
     inkscape:connector-curvature="0"
     style="fill:#ffffff" /><path
     id="path1041"
     d="m 95.693,21.336 -0.149,-0.678 c -2.87,3.33 -4.456,7.573 -6.228,11.668 v 4.375 c 2.351,-3.104 4.125,-6.556 7.332,-8.879 -0.21,-2.269 -0.519,-4.435 -0.955,-6.486 z"
     inkscape:connector-curvature="0"
     style="fill:#f15d2c" /><path
     id="path1043"
     d="m 89.316,23.878 v 8.448 c 1.771,-4.095 3.356,-8.339 6.228,-11.668 -1.123,-4.866 -2.776,-8.525 -5.628,-11.617 -1.988,4.236 -2.811,9.459 -3.459,14.837 z"
     inkscape:connector-curvature="0"
     style="fill:#002d6a" /><path
     id="path1045"
     d="M 86.457,23.878 C 87.105,18.5 87.928,13.277 89.916,9.041 A 19.789,19.789 0 0 0 85.85,5.684 c -1.58,4.995 -1.672,11.492 -1.67,18.195 z"
     inkscape:connector-curvature="0"
     style="fill:#48ba7f" /><path
     id="path1047"
     d="M 83.686,23.878 C 83.499,16.92 83.381,10.178 84.803,5.065 84.481,4.887 84.59,4.944 84.259,4.772 82.93,9.943 83.155,16.796 83.44,23.878 Z"
     inkscape:connector-curvature="0"
     style="fill:#002d6a" /><path
     id="path1049"
     d="m 83.273,23.878 h 0.166 C 83.154,16.796 82.927,9.942 84.257,4.772 a 28.054,28.054 0 0 0 -2.29,-1.066 c -1.335,7.819 0.77,19.708 1.309,30.558 V 23.878 Z"
     inkscape:connector-curvature="0"
     style="fill:#48ba7f" /><path
     id="path1051"
     d="m 83.273,37.713 v -3.45 C 82.734,23.413 80.63,11.524 81.965,3.705 A 35.578,35.578 0 0 0 77.506,2.217 c 0.044,9.753 5.065,26.461 5.812,39.742 -0.088,-1.227 -0.045,-3.105 -0.045,-4.246 z"
     inkscape:connector-curvature="0"
     style="fill:#1268b3" /><path
     id="path1053"
     d="M 83.318,41.959 C 78.884,27.566 70.007,10.12 64.889,0.255 A 93.198,93.198 0 0 0 55.35,0.039 c 8.39,9.711 19.572,25.687 26.8,39.624 0.452,0.835 0.868,1.646 1.168,2.296 z"
     inkscape:connector-curvature="0"
     style="fill:#e78040" /><path
     id="path1055"
     d="m 72.416,23.878 1.822,2.919 a 208.964,208.964 0 0 1 5.928,9.501 l 0.744,1.196 c 0.41,0.679 0.84,1.431 1.24,2.168 C 74.922,25.726 63.738,9.75 55.35,0.04 54.877,0.054 54.251,0.074 53.78,0.096 59.421,6.272 66.153,14.883 72.283,23.879 Z"
     inkscape:connector-curvature="0"
     style="fill:#682c91" /><path
     id="path1057"
     d="M 72.281,23.878 C 66.15,14.882 59.419,6.271 53.779,0.095 52.842,0.136 52.38,0.163 51.459,0.231 57.568,6.461 64.75,14.989 71.311,23.878 Z"
     inkscape:connector-curvature="0"
     style="fill:#26abce" /><path
     id="path1059"
     d="M 71.311,23.878 C 64.75,14.989 57.568,6.461 51.459,0.231 c -1.843,0.133 -3.48,0.308 -5.208,0.572 7.021,6.323 15.128,14.558 22.612,23.075 z"
     inkscape:connector-curvature="0"
     style="fill:#18984a" /><path
     id="path1061"
     d="m 65.193,23.878 h 3.67 C 61.379,15.361 53.271,7.126 46.251,0.803 43.232,1.268 40.84,1.84 38.323,2.788 c 8.21,6.517 17.832,14.324 26.871,22.208 v -1.118 z"
     inkscape:connector-curvature="0"
     style="fill:#ffffff" /><path
     id="path1063"
     d="M 65.193,24.997 C 56.154,17.113 46.533,9.306 38.322,2.789 c -1.795,0.678 -3.423,1.498 -4.891,2.49 9.391,7.002 20.976,15.037 31.761,22.872 v -3.154 z"
     inkscape:connector-curvature="0"
     style="fill:#f15d2c" /><path
     id="path1065"
     d="M 65.193,28.15 C 54.408,20.316 42.823,12.281 33.432,5.278 c -0.293,0.199 -0.195,0.131 -0.483,0.336 9.49,7.03 21.277,15.056 32.244,22.858 z"
     inkscape:connector-curvature="0"
     style="fill:#002d6a" /><path
     id="path1067"
     d="m 84.18,23.878 c -0.002,-6.703 0.09,-13.2 1.67,-18.195 A 28.238,28.238 0 0 0 84.803,5.065 c -1.422,5.113 -1.304,11.855 -1.117,18.813 z"
     inkscape:connector-curvature="0"
     style="fill:#ffffff" /><g
     id="g1071"
     style="fill:#48ba7f"><path
       id="path1069"
       d="m 71.104,33.292 0.013,0.304 c 0.071,0.049 0.142,0.095 0.213,0.141 -0.077,-0.146 -0.162,-0.306 -0.226,-0.445 z M 65.193,28.473 C 54.229,20.67 42.439,12.645 32.949,5.615 c -0.574,0.412 -1.293,1 -1.805,1.472 9.827,7.075 22.385,15.017 34.049,22.621 z"
       inkscape:connector-curvature="0" /></g><path
     id="path1073"
     d="m 52.361,41.93 c -3.073,0 -6.096,0.004 -8.974,0.006 v 3.594 h 2.32 c 3.805,-10e-4 5.743,-1.4 6.654,-3.6 z"
     inkscape:connector-curvature="0"
     style="fill:#f15d2c" /><path
     id="path1075"
     d="m 45.971,29.417 h -2.583 v 12.519 c 2.878,-0.002 5.9,-0.006 8.973,-0.006 0.517,-1.246 0.703,-2.748 0.703,-4.412 0,-4.641 -1.357,-8.101 -7.093,-8.101 z"
     inkscape:connector-curvature="0"
     style="fill:#1268b3" /></g><path
   class="st1"
   d="m 0.03358935,50.037004 v -5.993626 c 2.11539765,1.057699 4.58336155,1.762831 7.05132535,2.115397 2.8205302,0 4.2307953,-1.057698 4.2307953,-2.467963 0,-2.115398 -1.7628314,-2.115398 -5.9936266,-3.878229 -3.1730964,-1.057699 -5.64106032,-4.230796 -5.28849405,-7.756458 0,-5.641061 4.23079525,-8.109025 9.87185555,-8.109025 2.4679641,0 4.9359281,0.352567 7.0513251,1.057699 v 5.641061 c -2.115397,-1.057699 -4.230795,-1.410266 -6.346193,-1.410266 -2.4679634,0 -3.5256623,0.705133 -3.5256623,2.467964 0,1.762832 1.4102651,2.115398 3.8782293,3.173097 4.230795,1.410265 7.756458,3.173096 7.756458,8.814157 0,5.64106 -4.230796,8.46159 -10.2244222,8.46159 C 5.6746497,51.447269 2.5015532,50.742137 0.03358935,50.037004"
   id="path36"
   inkscape:connector-curvature="0"
   style="fill:#fffbff;fill-opacity:1;stroke-width:3.52566266" /><path
   class="st1"
   d="m 65.070324,28.477715 v -4.230796 h 7.403892 l 1.762831,2.820531 v 0 l 5.993626,9.519289 v 0 l 0.705133,1.057699 1.410265,2.115397 1.057699,2.467964 c 0,-1.057699 0,-3.173096 0,-4.230795 V 24.246919 h 5.993626 v 27.147603 h -7.403891 l -2.467964,-4.230795 -0.705133,-1.057699 -2.467964,-3.878229 -2.82053,-4.583361 c -0.705132,-1.057699 -1.410265,-2.467964 -2.115397,-3.878229 0,0 0,-0.352567 -0.352567,-0.352567 v 0.352567 c 0,1.057699 0,2.467964 0,3.525662 v 13.750085 h -5.993626 z"
   id="path90"
   inkscape:connector-curvature="0"
   style="fill:#ffffff;fill-opacity:1;stroke-width:3.52566266" /><rect
   x="23.247009"
   y="24.125799"
   class="st1"
   width="6.6987591"
   height="27.147602"
   id="rect92"
   style="fill:#ffffff;fill-opacity:1;stroke-width:3.52566266" /><path
   class="st1"
   d="m 52.44677,42.198799 c -1.057699,2.467964 -3.878229,3.878229 -6.698759,3.525663 H 43.280047 V 29.506413 h 2.467964 c 5.64106,0 7.051325,3.525663 7.051325,8.109025 0.352567,1.762831 0,3.173096 -0.352566,4.583361 m -5.993626,-17.98088 h -9.871856 v 27.147603 h 9.871856 c 5.993626,0.705133 11.634686,-3.173096 13.397518,-9.166723 0.352566,-1.410265 0.705132,-2.82053 0.705132,-4.230795 0.705133,-7.051325 -4.583361,-13.044952 -11.28212,-13.750085 -1.057699,-0.352566 -1.762832,-0.352566 -2.82053,0"
   id="path94"
   inkscape:connector-curvature="0"
   style="fill:#ffffff;fill-opacity:1;stroke-width:3.52566266" />
</svg>
