<svg id="Layer_1" data-name="Layer 1" xmlns="http://www.w3.org/2000/svg" viewBox="0 0 385.52 141.73"><defs><style>.cls-1{fill:#e94960;}.cls-2{fill:#8e66a9;}.cls-3{fill:#2c204e;}.cls-4{fill:#fff;}</style></defs><title>2STiC_Logo_FC</title><path class="cls-1" d="M50.47,14.18a16.74,16.74,0,0,0-12.68,5.28L21.94,35.31A17,17,0,0,0,17,48v89.16a4.6,4.6,0,0,0,4.6,4.59H380.93a4.6,4.6,0,0,0,4.59-4.59V18.77a4.59,4.59,0,0,0-4.59-4.59Z"/><path class="cls-2" d="M33.46,0A16.74,16.74,0,0,0,20.78,5.28L4.93,21.13A17,17,0,0,0,0,33.81V123a4.6,4.6,0,0,0,4.6,4.6H363.91a4.6,4.6,0,0,0,4.6-4.6V4.6a4.6,4.6,0,0,0-4.6-4.6Z"/><path class="cls-3" d="M50.47,14.18a16.74,16.74,0,0,0-12.68,5.28L21.94,35.31A17,17,0,0,0,17,48v79.58h346.9a4.6,4.6,0,0,0,4.6-4.6V14.18Z"/><path class="cls-4" d="M41.41,72.78a4.8,4.8,0,0,1,1.6-3.6l4.51-4.5a4.65,4.65,0,0,1,3.6-1.6H85.33V47.27H42.21v-8.6H85.13a4.91,4.91,0,0,1,3.6,1.5l4.6,4.6a4.55,4.55,0,0,1,1.5,3.6V62.48a4.53,4.53,0,0,1-1.6,3.7l-4.6,4.2a4.84,4.84,0,0,1-3.6,1.5H50.92V89H94.83v8.5H41.41Z"/><path class="cls-4" d="M127.93,30.07a4.75,4.75,0,0,0-3.6,1.5l-4.5,4.5a4.82,4.82,0,0,0-1.4,3.6V58.18a4.69,4.69,0,0,0,1.5,3.6l4.5,4.5a4.69,4.69,0,0,0,3.5,1.5h36.72V88.49H118.33v9H165a4.91,4.91,0,0,0,3.6-1.5l4.5-4.5a4.75,4.75,0,0,0,1.5-3.6V68.38a4.75,4.75,0,0,0-1.5-3.6l-4.5-4.5a4.55,4.55,0,0,0-3.6-1.5H128.23V39.07h73.13V97.49h9.9V39.07h45.41v-9Z"/><path class="cls-4" d="M247.27,46.27h9.4V97.49h-9.4Z"/><path class="cls-4" d="M277.28,96l-4.4-4.5a4.55,4.55,0,0,1-1.5-3.6V39.67a4.55,4.55,0,0,1,1.5-3.6l4.4-4.5a5.14,5.14,0,0,1,3.7-1.5H327.1v9H281.28V88.49H327.1v9H281A5.14,5.14,0,0,1,277.28,96Z"/></svg>